<mxfile host="app.diagrams.net" modified="2023-10-18T08:31:19.403Z" agent="Mozilla/5.0 (Macintosh; Intel Mac OS X 10_15_7) AppleWebKit/537.36 (KHTML, like Gecko) Chrome/117.0.0.0 Safari/537.36" etag="aLx4m7fAUKsTJFQzP3a3" version="22.0.4" type="device">
  <diagram name="Page-1" id="j2ZfiIQW5RXhCau1Unwm">
    <mxGraphModel dx="1434" dy="765" grid="1" gridSize="10" guides="1" tooltips="1" connect="1" arrows="1" fold="1" page="1" pageScale="1" pageWidth="850" pageHeight="1100" math="0" shadow="0">
      <root>
        <mxCell id="0" />
        <mxCell id="1" parent="0" />
        <mxCell id="e-DSIup4hbHoXYnT6Bbi-1" value="Iso7816" style="rounded=0;whiteSpace=wrap;html=1;" parent="1" vertex="1">
          <mxGeometry x="660" y="340" width="120" height="60" as="geometry" />
        </mxCell>
        <mxCell id="e-DSIup4hbHoXYnT6Bbi-2" value="NFCTool" style="rounded=0;whiteSpace=wrap;html=1;" parent="1" vertex="1">
          <mxGeometry x="180" y="340" width="120" height="60" as="geometry" />
        </mxCell>
        <mxCell id="YYiIojJXaSPd1fC_VvmV-1" style="edgeStyle=orthogonalEdgeStyle;rounded=0;orthogonalLoop=1;jettySize=auto;html=1;" edge="1" parent="1" source="e-DSIup4hbHoXYnT6Bbi-3" target="QVnhsc1SrlVCrEe9omkg-5">
          <mxGeometry relative="1" as="geometry" />
        </mxCell>
        <mxCell id="YYiIojJXaSPd1fC_VvmV-2" style="edgeStyle=orthogonalEdgeStyle;rounded=0;orthogonalLoop=1;jettySize=auto;html=1;" edge="1" parent="1" source="e-DSIup4hbHoXYnT6Bbi-3" target="QVnhsc1SrlVCrEe9omkg-1">
          <mxGeometry relative="1" as="geometry" />
        </mxCell>
        <mxCell id="YYiIojJXaSPd1fC_VvmV-8" style="edgeStyle=orthogonalEdgeStyle;rounded=0;orthogonalLoop=1;jettySize=auto;html=1;" edge="1" parent="1" source="e-DSIup4hbHoXYnT6Bbi-3" target="e-DSIup4hbHoXYnT6Bbi-1">
          <mxGeometry relative="1" as="geometry" />
        </mxCell>
        <mxCell id="e-DSIup4hbHoXYnT6Bbi-3" value="DigitalKey" style="rounded=0;whiteSpace=wrap;html=1;" parent="1" vertex="1">
          <mxGeometry x="500" y="200" width="120" height="60" as="geometry" />
        </mxCell>
        <mxCell id="YYiIojJXaSPd1fC_VvmV-5" style="edgeStyle=orthogonalEdgeStyle;rounded=0;orthogonalLoop=1;jettySize=auto;html=1;" edge="1" parent="1" source="e-DSIup4hbHoXYnT6Bbi-4" target="e-DSIup4hbHoXYnT6Bbi-2">
          <mxGeometry relative="1" as="geometry" />
        </mxCell>
        <mxCell id="YYiIojJXaSPd1fC_VvmV-6" style="edgeStyle=orthogonalEdgeStyle;rounded=0;orthogonalLoop=1;jettySize=auto;html=1;entryX=0.25;entryY=0;entryDx=0;entryDy=0;" edge="1" parent="1" source="e-DSIup4hbHoXYnT6Bbi-4" target="QVnhsc1SrlVCrEe9omkg-5">
          <mxGeometry relative="1" as="geometry" />
        </mxCell>
        <mxCell id="YYiIojJXaSPd1fC_VvmV-7" style="edgeStyle=orthogonalEdgeStyle;rounded=0;orthogonalLoop=1;jettySize=auto;html=1;entryX=0.25;entryY=1;entryDx=0;entryDy=0;" edge="1" parent="1" source="e-DSIup4hbHoXYnT6Bbi-4" target="QVnhsc1SrlVCrEe9omkg-1">
          <mxGeometry relative="1" as="geometry">
            <Array as="points">
              <mxPoint x="320" y="230" />
              <mxPoint x="320" y="420" />
              <mxPoint x="530" y="420" />
            </Array>
          </mxGeometry>
        </mxCell>
        <mxCell id="e-DSIup4hbHoXYnT6Bbi-4" value="EmulatorVehicalOem" style="rounded=0;whiteSpace=wrap;html=1;" parent="1" vertex="1">
          <mxGeometry x="180" y="200" width="120" height="60" as="geometry" />
        </mxCell>
        <mxCell id="e-DSIup4hbHoXYnT6Bbi-13" style="edgeStyle=orthogonalEdgeStyle;rounded=0;orthogonalLoop=1;jettySize=auto;html=1;" parent="1" source="e-DSIup4hbHoXYnT6Bbi-6" target="e-DSIup4hbHoXYnT6Bbi-4" edge="1">
          <mxGeometry relative="1" as="geometry" />
        </mxCell>
        <mxCell id="YYiIojJXaSPd1fC_VvmV-4" style="edgeStyle=orthogonalEdgeStyle;rounded=0;orthogonalLoop=1;jettySize=auto;html=1;entryX=0.5;entryY=0;entryDx=0;entryDy=0;" edge="1" parent="1" source="e-DSIup4hbHoXYnT6Bbi-6" target="e-DSIup4hbHoXYnT6Bbi-3">
          <mxGeometry relative="1" as="geometry" />
        </mxCell>
        <mxCell id="e-DSIup4hbHoXYnT6Bbi-6" value="app" style="rounded=0;whiteSpace=wrap;html=1;" parent="1" vertex="1">
          <mxGeometry x="350" y="80" width="120" height="60" as="geometry" />
        </mxCell>
        <mxCell id="e-DSIup4hbHoXYnT6Bbi-17" value="Iso 7816-4" style="text;html=1;strokeColor=none;fillColor=none;align=center;verticalAlign=middle;whiteSpace=wrap;rounded=0;" parent="1" vertex="1">
          <mxGeometry x="800" y="475" width="60" height="30" as="geometry" />
        </mxCell>
        <mxCell id="QVnhsc1SrlVCrEe9omkg-1" value="SharedModel" style="rounded=0;whiteSpace=wrap;html=1;" parent="1" vertex="1">
          <mxGeometry x="500" y="340" width="120" height="60" as="geometry" />
        </mxCell>
        <mxCell id="QVnhsc1SrlVCrEe9omkg-5" value="Security" style="rounded=0;whiteSpace=wrap;html=1;" parent="1" vertex="1">
          <mxGeometry x="340" y="340" width="120" height="60" as="geometry" />
        </mxCell>
      </root>
    </mxGraphModel>
  </diagram>
</mxfile>
